name Walk3.mot
datacolumns 19
datarows 25
range 1.31500000 1.43500000
endheader

                time	   L_ground_force_vx	   L_ground_force_vy	   L_ground_force_vz	   L_ground_force_px	   L_ground_force_py	   L_ground_force_pz	   R_ground_force_vx	   R_ground_force_vy	   R_ground_force_vz	   R_ground_force_px	   R_ground_force_py	   R_ground_force_pz	   L_ground_torque_x	   L_ground_torque_y	   L_ground_torque_z	   R_ground_torque_x	   R_ground_torque_y	   R_ground_torque_z	
          1.31500000	         -5.69085367	         95.10803952	         -9.77724897	         -0.06100535	          0.00000000	         -0.00398321	         -0.00000016	          0.00000151	          0.00000010	          0.00000000	          0.00000000	          0.00000000	          0.00000000	          0.23324607	          0.00000000	          0.00000000	         -0.00000003	          0.00000000	
          1.32000000	        -10.75725747	        137.97185696	        -13.31280317	         -0.13303988	          0.00000000	         -0.01052269	         -0.00000016	          0.00000169	          0.00000011	          0.00000000	          0.00000000	          0.00000000	          0.00000000	          0.32984245	          0.00000000	          0.00000000	         -0.00000003	          0.00000000	
          1.32500000	        -16.31438702	        181.52347301	        -16.79934548	         -0.19598096	          0.00000000	         -0.01626559	         -0.00000013	          0.00000177	          0.00000012	          0.00000000	          0.00000000	          0.00000000	          0.00000000	          0.42435507	          0.00000000	          0.00000000	         -0.00000003	          0.00000000	
          1.33000000	        -22.30513661	        223.76483394	        -19.92117900	         -0.24792078	          0.00000000	         -0.02108825	         -0.00000008	          0.00000168	          0.00000011	          0.00000000	          0.00000000	          0.00000000	          0.00000000	          0.51004765	          0.00000000	          0.00000000	         -0.00000003	          0.00000000	
          1.33500000	        -28.62998049	        263.33095564	        -22.32831794	         -0.28849653	          0.00000000	         -0.02500835	          0.00000002	          0.00000132	          0.00000009	         -0.00000000	          0.00000000	         -0.00000000	          0.00000000	          0.57984212	          0.00000000	          0.00000000	         -0.00000002	          0.00000000	
          1.34000000	        -35.10433979	        299.45525705	        -23.71882925	         -0.31836820	          0.00000000	         -0.02812426	          0.00000016	          0.00000061	          0.00000005	         -0.00000000	          0.00000000	         -0.00000000	          0.00000000	          0.62670071	          0.00000000	          0.00000000	         -0.00000001	          0.00000000	
          1.34500000	        -41.47729144	        331.85999138	        -23.89546862	         -0.33880094	          0.00000000	         -0.03057236	          0.00000037	         -0.00000059	         -0.00000002	         -0.00000000	          0.00000000	         -0.00000000	          0.00000000	          0.64467305	          0.00000000	          0.00000000	          0.00000001	          0.00000000	
          1.35000000	        -47.50517051	        360.68274260	        -22.78808903	         -0.35134931	          0.00000000	         -0.03249752	          0.00000064	         -0.00000237	         -0.00000013	         -0.00000000	          0.00000000	         -0.00000000	          0.00000000	          0.63039875	          0.00000000	          0.00000000	          0.00000004	          0.00000000	
          1.35500000	        -53.04352486	        386.37096177	        -20.45112455	         -0.35763300	          0.00000000	         -0.03403186	          0.00000100	         -0.00000487	         -0.00000029	         -0.00000000	          0.00000000	         -0.00000000	          0.00000000	          0.58397268	          0.00000000	          0.00000000	          0.00000009	          0.00000000	
          1.36000000	        -58.08536580	        409.50802188	        -17.04823838	         -0.35919049	          0.00000000	         -0.03528096	          0.00000142	         -0.00000816	         -0.00000049	         -0.00000000	          0.00000000	         -0.00000000	          0.00000000	          0.50952248	          0.00000000	          0.00000000	          0.00000015	          0.00000000	
          1.36500000	        -62.70765224	        430.63563008	        -12.83633784	         -0.35739726	          0.00000000	         -0.03631973	          0.00000191	         -0.00001228	         -0.00000075	         -0.00000001	          0.00000000	         -0.00000001	          0.00000000	          0.41546880	          0.00000000	          0.00000000	          0.00000022	          0.00000000	
          1.37000000	        -66.96431536	        450.19607306	         -8.14025474	         -0.35342254	          0.00000000	         -0.03719704	          0.00000244	         -0.00001720	         -0.00000107	         -0.00000001	          0.00000000	         -0.00000001	          0.00000000	          0.31369177	          0.00000000	          0.00000000	          0.00000031	          0.00000000	
          1.37500000	        -70.81488339	        468.58300119	         -3.30608780	         -0.34821084	          0.00000000	         -0.03794188	          0.00000296	         -0.00002274	         -0.00000142	         -0.00000001	          0.00000000	         -0.00000001	          0.00000000	          0.21742721	          0.00000000	          0.00000000	          0.00000041	          0.00000000	
          1.38000000	        -74.14277661	        486.19451613	          1.35299460	         -0.34249017	          0.00000000	         -0.03856777	          0.00000340	         -0.00002859	         -0.00000181	         -0.00000001	          0.00000000	         -0.00000001	          0.00000000	          0.13816212	          0.00000000	          0.00000000	          0.00000052	          0.00000000	
          1.38500000	        -76.82797285	        503.43279019	          5.59787307	         -0.33678961	          0.00000000	         -0.03908179	          0.00000368	         -0.00003417	         -0.00000218	         -0.00000001	          0.00000000	         -0.00000001	          0.00000000	          0.08244746	          0.00000000	          0.00000000	          0.00000062	          0.00000000	
          1.39000000	        -78.79968664	        520.64698310	          9.28727665	         -0.33146358	          0.00000000	         -0.03949204	          0.00000365	         -0.00003867	         -0.00000249	         -0.00000001	          0.00000000	         -0.00000001	          0.00000000	          0.05045719	          0.00000000	          0.00000000	          0.00000071	          0.00000000	
          1.39500000	        -80.03959844	        538.08249788	         12.37775396	         -0.32672124	          0.00000000	         -0.03980900	          0.00000317	         -0.00004091	         -0.00000268	         -0.00000001	          0.00000000	         -0.00000001	          0.00000000	          0.03729831	          0.00000000	          0.00000000	          0.00000075	          0.00000000	
          1.40000000	        -80.56415993	        555.87019295	         14.89706519	         -0.32265886	          0.00000000	         -0.04004505	          0.00000202	         -0.00003936	         -0.00000263	         -0.00000000	          0.00000000	         -0.00000000	          0.00000000	          0.03635478	          0.00000000	          0.00000000	          0.00000073	          0.00000000	
          1.40500000	        -80.41557157	        574.03562541	         16.91118506	         -0.31928967	          0.00000000	         -0.04021242	         -0.00000002	         -0.00003208	         -0.00000223	          0.00000000	          0.00000000	          0.00000000	          0.00000000	          0.04250510	          0.00000000	          0.00000000	          0.00000060	          0.00000000	
          1.41000000	        -79.66070148	        592.50345086	         18.50596963	         -0.31656846	          0.00000000	         -0.04032348	         -0.00000321	         -0.00001679	         -0.00000134	          0.00000001	          0.00000000	          0.00000001	          0.00000000	          0.05300150	          0.00000000	          0.00000000	          0.00000033	          0.00000000	
          1.41500000	        -78.38158811	        611.10573212	         19.78520919	         -0.31441352	          0.00000000	         -0.04039220	         -0.00000777	          0.00000914	          0.00000022	          0.00000003	          0.00000000	          0.00000003	          0.00000000	          0.06630505	          0.00000000	          0.00000000	         -0.00000013	          0.00000000	
          1.42000000	        -76.65767484	        629.60083557	         20.87477472	         -0.31272495	          0.00000000	         -0.04043529	         -0.00001393	          0.00004844	          0.00000262	          0.00000005	          0.00000000	          0.00000005	          0.00000000	          0.07981017	          0.00000000	          0.00000000	         -0.00000084	          0.00000000	
          1.42500000	        -74.55798478	        647.69759098	         21.91651028	         -0.31139768	          0.00000000	         -0.04047118	         -0.00002182	          0.00010374	          0.00000605	          0.00000007	          0.00000000	          0.00000007	          0.00000000	          0.08951130	          0.00000000	          0.00000000	         -0.00000184	          0.00000000	
          1.43000000	        -72.14277561	        665.07113987	         23.04925205	         -0.31033148	          0.00000000	         -0.04051513	         -0.00003143	          0.00017720	          0.00001064	          0.00000010	          0.00000000	          0.00000010	          0.00000000	          0.09124152	          0.00000000	          0.00000000	         -0.00000316	          0.00000000	
          1.43500000	        -69.46321684	        681.36981442	         24.38858542	         -0.30943856	          0.00000000	         -0.04057867	         -0.00004254	          0.00026988	          0.00001650	          0.00000013	          0.00000000	          0.00000013	          0.00000000	          0.08158586	          0.00000000	          0.00000000	         -0.00000485	          0.00000000	
